<?xml version="1.0" standalone="no"?>
<!DOCTYPE svg PUBLIC "-//W3C//DTD SVG 20010904//EN"
 "http://www.w3.org/TR/2001/REC-SVG-20010904/DTD/svg10.dtd">
<svg version="1.0" xmlns="http://www.w3.org/2000/svg"
 width="400.000000pt" height="400.000000pt" viewBox="0 0 400.000000 400.000000"
 preserveAspectRatio="xMidYMid meet">
<metadata>
Created by potrace 1.14, written by Peter Selinger 2001-2017
</metadata>
<g transform="translate(0.000000,400.000000) scale(0.100000,-0.100000)"
fill="#000000" stroke="none">
<path d="M759 3898 c-215 -302 -387 -527 -466 -609 -51 -52 -53 -57 -43 -84 6
-16 33 -58 59 -94 158 -215 239 -387 262 -561 18 -132 1 -214 -83 -410 -85
-197 -116 -289 -151 -435 -67 -278 -50 -529 48 -742 95 -205 302 -398 552
-514 77 -36 309 -125 503 -194 206 -73 379 -143 479 -196 l114 -59 51 38 c123
94 178 118 651 287 401 144 545 223 710 389 133 135 186 227 237 414 17 64 21
106 21 242 1 145 -3 180 -27 285 -31 138 -91 316 -164 493 -62 147 -77 223
-69 351 10 170 86 371 222 586 32 50 66 109 78 132 l20 42 -44 43 c-82 80
-479 604 -512 675 -6 13 -14 22 -17 21 -4 -2 -117 -58 -251 -126 -274 -138
-347 -162 -489 -162 -90 0 -211 25 -272 56 -18 9 -56 32 -84 51 l-52 33 -53
-35 c-104 -68 -210 -97 -354 -97 -141 -1 -208 19 -444 126 -113 52 -231 104
-261 116 -30 13 -59 27 -64 32 -21 18 -37 4 -107 -94z m2392 -70 c10 -13 69
-95 130 -183 141 -202 256 -353 280 -366 28 -14 33 -52 13 -90 -9 -19 -47 -81
-84 -139 -131 -204 -189 -344 -210 -502 -15 -116 3 -211 68 -355 103 -228 177
-461 203 -641 19 -133 7 -350 -23 -444 -36 -110 -90 -200 -171 -284 -121 -128
-252 -202 -547 -308 -543 -196 -599 -220 -726 -317 -35 -27 -71 -49 -80 -49
-9 0 -48 20 -88 44 -123 77 -301 153 -766 326 -277 103 -391 170 -515 301
-137 146 -199 316 -198 544 0 234 68 494 211 812 22 48 47 112 56 142 23 78
21 228 -4 327 -27 103 -108 269 -209 424 -44 68 -81 135 -81 147 0 13 18 41
41 65 52 55 173 216 302 404 71 103 109 150 124 152 12 2 120 -47 251 -112
126 -63 257 -122 291 -131 81 -21 232 -21 319 0 37 9 108 37 159 61 51 24 97
44 102 44 5 0 42 -16 80 -35 107 -54 207 -77 331 -78 145 -1 194 15 459 148
124 63 234 114 244 114 10 1 27 -9 38 -21z"/>
<path d="M2875 3624 c-253 -126 -297 -139 -465 -138 -139 1 -237 22 -347 74
l-63 29 -75 -35 c-120 -55 -212 -76 -345 -76 -161 0 -225 19 -468 141 -111 56
-204 101 -206 101 -3 0 -55 -71 -115 -157 -61 -87 -146 -203 -189 -258 l-78
-100 69 -105 c79 -121 166 -296 196 -392 59 -196 50 -350 -34 -538 -171 -384
-244 -690 -216 -905 30 -219 132 -378 322 -501 89 -58 156 -87 483 -209 298
-111 478 -188 576 -245 38 -22 74 -40 80 -40 6 0 34 18 63 40 82 62 238 130
552 243 160 57 324 119 365 136 113 48 217 117 295 196 257 258 251 654 -20
1270 -73 165 -79 191 -78 330 0 99 5 135 27 210 36 120 106 265 196 404 51 78
71 117 64 126 -5 7 -50 66 -99 131 -50 66 -131 176 -179 247 -49 70 -92 127
-95 126 -3 0 -100 -47 -216 -105z m-1660 -418 c62 -26 98 -114 76 -188 -12
-39 -44 -81 -70 -89 -9 -3 1 -34 33 -103 25 -54 46 -100 46 -103 0 -2 -27 -3
-61 -1 l-61 3 -42 92 -41 93 -37 0 -38 0 0 -95 0 -95 -55 0 -55 0 0 250 0 250
135 0 c95 0 146 -4 170 -14z m275 -150 c0 -89 5 -177 10 -193 19 -52 96 -70
141 -34 23 19 24 24 27 205 l3 186 56 0 55 0 -4 -197 c-4 -229 -10 -251 -88
-291 -38 -20 -56 -23 -121 -19 -92 4 -133 25 -163 82 -19 36 -21 60 -24 233
l-4 192 56 0 56 0 0 -164z m710 149 c39 -20 60 -63 60 -120 0 -58 -13 -83 -53
-100 -28 -13 -29 -14 -9 -15 13 0 37 -13 53 -29 53 -53 35 -160 -34 -201 -28
-17 -51 -20 -179 -20 l-148 0 0 250 0 250 140 0 c107 0 148 -4 170 -15z m390
-30 c0 -45 0 -45 -35 -45 l-35 0 0 -160 0 -160 35 0 c35 0 35 0 35 -45 l0 -45
-120 0 -120 0 0 45 c0 43 1 45 30 45 l30 0 0 160 0 160 -30 0 c-29 0 -30 2
-30 45 l0 45 120 0 120 0 0 -45z m273 -67 c36 -62 76 -135 90 -163 l26 -50 1
163 0 162 55 0 55 0 0 -250 0 -250 -62 0 -63 0 -60 103 c-33 56 -75 131 -92
167 l-33 65 0 -167 0 -168 -50 0 -50 0 0 250 0 250 59 0 59 0 65 -112z m-965
-915 l3 -113 -243 -2 -243 -3 -3 -175 c-1 -96 0 -180 2 -186 3 -8 18 0 41 21
64 61 175 80 286 49 146 -41 208 -177 209 -459 0 -299 -72 -448 -244 -501 -71
-22 -250 -30 -328 -14 -166 32 -255 126 -266 282 l-5 68 147 0 146 0 6 -41
c14 -83 80 -123 160 -97 58 20 74 57 85 195 11 131 -1 274 -25 322 -38 73
-115 93 -166 43 -26 -27 -50 -85 -50 -125 0 -16 -12 -17 -142 -15 l-143 3 -3
420 c-1 231 0 426 3 433 3 10 86 12 387 10 l383 -3 3 -112z m950 0 l3 -113
-246 0 -245 0 0 -191 0 -191 40 35 c99 90 292 87 388 -6 79 -75 105 -178 106
-407 0 -171 -14 -262 -50 -333 -71 -138 -207 -196 -433 -184 -214 10 -318 88
-350 262 -19 103 -32 95 139 95 l150 0 0 -25 c0 -78 64 -134 138 -120 90 17
116 95 110 329 -3 130 -7 157 -25 192 -28 52 -44 65 -92 71 -36 5 -44 2 -75
-29 -23 -23 -37 -48 -41 -74 -4 -21 -8 -45 -10 -51 -3 -10 -41 -13 -145 -13
l-140 0 0 428 c0 236 3 432 7 435 4 4 178 6 387 5 l381 -3 3 -112z"/>
<path d="M1020 3065 l0 -55 68 0 c76 0 92 9 92 55 0 46 -16 55 -92 55 l-68 0
0 -55z"/>
<path d="M2000 3065 l0 -55 63 0 c71 0 87 10 87 55 0 45 -16 55 -87 55 l-63 0
0 -55z"/>
<path d="M2000 2870 l0 -50 75 0 c71 0 76 2 87 25 8 19 8 31 0 50 -11 23 -16
25 -87 25 l-75 0 0 -50z"/>
</g>
</svg>
